<?xml version="1.0" standalone="no"?>
<!DOCTYPE svg PUBLIC "-//W3C//DTD SVG 20010904//EN"
 "http://www.w3.org/TR/2001/REC-SVG-20010904/DTD/svg10.dtd">
<svg version="1.0" xmlns="http://www.w3.org/2000/svg"
 width="500.000000pt" height="500.000000pt" viewBox="0 0 500.000000 500.000000"
 preserveAspectRatio="xMidYMid meet">
<metadata>
Created by potrace 1.14, written by Peter Selinger 2001-2017
</metadata>
<g transform="translate(0.000000,500.000000) scale(0.100000,-0.100000)"
fill="#000000" stroke="none">
<path d="M2339 4616 c-2 -2 -34 -7 -71 -10 -84 -9 -94 -10 -243 -40 -104 -21
-279 -83 -435 -153 -112 -51 -378 -218 -388 -245 -2 -4 -8 -8 -13 -8 -23 0
-333 -307 -344 -341 -4 -10 -10 -19 -15 -19 -11 0 -149 -210 -203 -310 -75
-140 -136 -300 -181 -473 -27 -105 -34 -141 -53 -282 -10 -78 -10 -391 0 -475
13 -105 17 -134 22 -150 2 -8 7 -33 11 -55 3 -22 8 -43 10 -46 2 -3 6 -20 9
-36 8 -49 74 -239 112 -327 46 -104 106 -217 155 -288 21 -31 38 -61 38 -67 0
-5 3 -11 8 -13 4 -1 34 -39 67 -83 77 -103 266 -293 375 -377 232 -179 505
-312 785 -382 107 -27 118 -29 240 -48 127 -20 542 -15 608 7 7 2 30 7 52 10
228 33 533 153 765 300 155 99 367 284 480 420 145 173 263 372 348 585 39 98
94 276 106 345 3 17 8 41 11 55 3 14 8 45 11 70 3 25 9 72 14 105 10 78 10
343 0 420 -5 33 -11 80 -14 105 -8 58 -15 100 -22 122 -3 10 -7 30 -10 45 -7
41 -51 188 -81 268 -21 56 -108 249 -119 263 -1 2 -28 -17 -59 -43 -31 -25
-76 -58 -99 -72 -22 -14 -42 -26 -43 -27 -1 -1 15 -38 36 -81 69 -143 125
-316 150 -465 6 -36 13 -81 17 -100 10 -60 13 -382 3 -440 -5 -30 -11 -71 -13
-90 -3 -19 -8 -46 -10 -60 -3 -14 -8 -38 -12 -55 -36 -181 -138 -426 -241
-585 -60 -93 -66 -100 -118 -168 -41 -54 -199 -219 -246 -257 -95 -77 -122
-98 -189 -142 -212 -142 -497 -254 -730 -288 -110 -16 -164 -20 -300 -20 -169
0 -256 7 -364 31 -39 8 -82 17 -96 20 -122 25 -464 165 -478 197 -2 4 -8 7
-14 7 -6 0 -30 14 -55 30 -24 17 -48 30 -53 30 -4 0 -10 3 -12 8 -1 4 -30 27
-63 52 -227 168 -419 401 -550 665 -50 101 -135 336 -149 410 -3 17 -13 73
-22 125 -25 133 -25 457 0 595 41 234 109 426 219 620 48 85 89 149 100 153 4
2 7 8 7 14 0 5 17 31 38 56 216 269 466 460 767 589 55 23 198 71 234 78 12 2
31 7 41 10 24 8 52 14 125 26 107 19 118 20 290 23 184 4 270 -4 430 -38 107
-23 192 -50 305 -95 56 -23 104 -41 106 -41 2 0 15 22 28 48 13 27 45 74 71
105 l46 57 -68 31 c-188 86 -390 147 -578 174 -22 4 -51 9 -65 11 -30 7 -415
15 -421 10z"/>
<path d="M3820 4301 c-225 -48 -352 -311 -253 -523 80 -170 278 -258 452 -199
98 34 177 100 220 186 31 62 36 88 35 180 0 68 -5 90 -31 145 -61 129 -180
211 -317 216 -39 2 -87 0 -106 -5z"/>
<path d="M2369 3866 c-2 -2 -28 -7 -57 -10 -30 -3 -57 -8 -60 -10 -4 -2 -25
-7 -47 -10 -61 -10 -236 -71 -312 -110 -220 -110 -423 -294 -552 -500 -173
-276 -243 -608 -196 -926 18 -122 47 -231 61 -237 7 -3 26 7 41 21 22 21 94
61 181 102 2 1 -1 19 -7 40 -20 77 -23 101 -26 229 -4 132 8 229 41 344 16 57
82 218 96 236 4 6 30 44 58 86 161 247 462 434 767 478 70 10 292 7 353 -4
393 -76 722 -350 857 -715 65 -175 88 -384 62 -555 -57 -367 -288 -686 -614
-845 -105 -52 -243 -96 -335 -108 -91 -12 -320 -6 -387 10 l-61 15 -41 -81
c-22 -45 -51 -93 -65 -108 l-26 -27 53 -15 c111 -31 199 -41 372 -40 102 0
177 6 235 18 584 120 1010 562 1105 1146 13 83 14 354 1 410 -3 14 -9 41 -12
60 -30 176 -134 409 -252 565 -52 68 -188 206 -247 250 -22 16 -42 32 -45 36
-12 14 -161 100 -220 128 -84 39 -224 85 -325 107 -73 15 -384 31 -396 20z"/>
<path d="M2352 3100 c-279 -75 -470 -321 -470 -605 0 -286 194 -534 474 -605
383 -98 764 195 773 595 6 254 -165 507 -401 593 -78 29 -99 33 -208 38 -73 3
-112 0 -168 -16z"/>
<path d="M1515 1949 c-33 -11 -67 -27 -76 -35 -8 -8 -19 -14 -23 -14 -18 0
-91 -91 -118 -148 -90 -187 -10 -405 182 -496 58 -28 75 -31 155 -31 80 0 97
3 155 31 79 37 149 106 186 182 23 48 27 71 28 147 1 102 -17 164 -68 230 -47
61 -75 84 -145 118 -86 41 -189 47 -276 16z"/>
</g>
</svg>
