<?xml version="1.0" standalone="no"?>
<!DOCTYPE svg PUBLIC "-//W3C//DTD SVG 20010904//EN"
 "http://www.w3.org/TR/2001/REC-SVG-20010904/DTD/svg10.dtd">
<svg version="1.0" xmlns="http://www.w3.org/2000/svg"
 width="700.000000pt" height="700.000000pt" viewBox="0 0 700.000000 700.000000"
 preserveAspectRatio="xMidYMid meet">
<metadata>
Created by potrace 1.14, written by Peter Selinger 2001-2017
</metadata>
<g transform="translate(0.000000,700.000000) scale(0.100000,-0.100000)"
fill="#000000" stroke="none">
<path d="M1879 6698 c0 -2 -9 -42 -19 -89 -31 -151 -84 -232 -178 -276 -54
-24 -165 -52 -211 -53 -33 0 -23 -7 19 -13 63 -9 163 -38 211 -62 88 -45 147
-145 165 -281 7 -56 19 -76 22 -38 7 87 62 228 109 278 36 39 117 74 221 96
48 10 80 19 72 20 -113 13 -235 59 -293 110 -52 46 -105 177 -110 277 -2 28
-5 41 -8 31z"/>
<path d="M5838 6295 c-2 -1 -39 -5 -84 -9 -45 -3 -105 -11 -135 -16 -30 -6
-70 -13 -89 -16 -174 -27 -492 -120 -755 -222 -386 -149 -917 -419 -1275 -647
-308 -196 -500 -327 -710 -483 -132 -98 -485 -374 -500 -392 -3 -3 -50 -43
-105 -90 -213 -182 -413 -369 -638 -599 -169 -172 -184 -188 -431 -471 -12
-14 -40 -47 -61 -75 -22 -27 -43 -52 -46 -55 -3 -3 -25 -32 -50 -65 -24 -33
-50 -66 -57 -74 -29 -31 -208 -289 -286 -413 -192 -306 -339 -634 -390 -873
-9 -38 -19 -83 -22 -100 -15 -69 -14 -319 2 -390 55 -239 215 -413 456 -495
46 -16 101 -31 123 -35 22 -4 54 -9 70 -11 17 -3 41 -7 55 -10 33 -5 288 -6
320 0 14 2 54 7 90 11 126 12 350 55 420 80 22 8 41 14 43 14 17 -5 312 92
482 158 325 127 772 346 1050 514 17 10 44 26 60 35 223 124 794 513 1038 707
23 18 87 69 142 113 417 330 892 777 1210 1140 389 442 640 798 835 1184 102
201 171 387 212 572 19 86 23 131 23 268 -1 159 -2 168 -33 258 -86 251 -268
400 -561 461 -47 10 -93 19 -101 20 -34 2 -300 8 -302 6z m254 -159 c180 -13
361 -88 453 -187 96 -104 139 -225 139 -394 1 -120 -7 -178 -39 -304 -141
-556 -621 -1267 -1340 -1986 -207 -207 -292 -287 -465 -439 -69 -60 -138 -121
-155 -135 -49 -43 -62 -47 -34 -10 14 18 43 63 64 99 21 36 53 79 70 95 18 17
57 52 86 79 318 288 740 757 919 1021 18 28 36 52 40 55 3 3 45 66 92 140 179
282 303 552 353 772 45 195 39 381 -16 520 -130 330 -517 461 -1069 361 -115
-20 -94 -16 -160 -32 -520 -122 -1230 -463 -1845 -886 -66 -45 -156 -97 -199
-115 -93 -39 -174 -81 -233 -122 -87 -59 -39 -16 90 80 230 174 674 474 778
527 10 5 19 13 19 17 0 5 5 8 10 8 6 0 47 23 91 50 44 28 82 50 83 50 2 0 43
23 92 51 129 74 489 257 629 319 332 146 766 292 974 326 18 3 43 8 55 10 49
10 160 24 238 30 45 4 84 7 85 8 3 3 109 -2 195 -8z m-388 -501 c368 -64 478
-339 320 -798 -45 -129 -163 -370 -251 -510 -62 -97 -233 -344 -258 -371 -5
-6 -48 -58 -95 -116 -46 -58 -98 -121 -116 -140 -121 -136 -162 -180 -279
-301 l-131 -137 7 47 c4 25 6 123 4 216 -4 231 -36 369 -132 575 -153 327
-461 600 -810 719 -112 38 -277 69 -368 70 -53 1 -46 7 145 118 231 134 463
256 600 315 19 9 58 26 85 38 212 95 564 212 735 244 14 3 50 10 80 16 30 6
89 13 130 17 41 3 76 7 78 8 6 5 217 -3 256 -10z m-3034 -1018 c0 -2 -10 -12
-22 -23 l-23 -19 19 23 c18 21 26 27 26 19z m-142 -130 c-51 -52 -113 -122
-138 -157 -53 -74 -72 -94 -211 -220 -202 -184 -443 -431 -639 -656 -116 -132
-309 -387 -404 -533 -180 -275 -338 -606 -372 -776 -1 -5 -6 -28 -12 -50 -28
-103 -35 -260 -17 -380 40 -266 262 -472 553 -511 26 -3 50 -8 54 -10 8 -5
258 -5 303 0 103 11 156 19 200 27 28 6 61 13 75 15 338 66 887 286 1300 519
41 23 93 53 115 65 22 12 71 41 108 64 37 22 76 46 85 51 47 27 106 65 198
126 62 41 125 73 160 84 33 9 84 25 114 36 64 24 62 22 -50 -58 -556 -393
-1194 -748 -1705 -948 -186 -72 -464 -166 -531 -178 -10 -2 -37 -9 -59 -15
-45 -12 -57 -15 -203 -42 -221 -42 -463 -47 -637 -14 -73 13 -185 59 -248 101
-157 104 -227 261 -221 489 1 60 5 120 7 134 14 75 19 100 32 150 41 160 94
291 197 495 259 509 722 1093 1315 1655 141 134 202 190 298 274 136 119 146
128 200 171 28 22 61 50 75 61 68 59 145 123 148 124 2 0 -38 -42 -90 -93z
m1109 48 c404 -46 752 -336 876 -730 14 -44 28 -102 32 -130 4 -27 9 -59 11
-70 6 -27 5 -195 0 -220 -3 -11 -5 -32 -5 -47 -1 -38 -49 -88 -86 -92 -61 -7
-121 54 -108 109 13 56 9 226 -7 305 -64 318 -288 560 -607 657 -77 23 -106
26 -228 27 -117 0 -153 -3 -220 -22 -107 -31 -225 -89 -310 -155 -120 -91
-244 -266 -284 -402 -19 -63 -33 -86 -63 -101 -38 -19 -71 -18 -101 6 -43 34
-48 67 -22 149 86 271 291 501 558 626 92 44 229 83 315 91 37 3 68 6 69 7 3
4 125 -1 180 -8z m-1511 -841 c-13 -81 -14 -319 -1 -404 6 -38 16 -82 39 -180
2 -8 14 -44 26 -80 20 -58 36 -92 111 -241 55 -109 231 -309 359 -406 181
-138 429 -245 620 -269 123 -15 125 -10 -33 -101 -196 -112 -204 -116 -367
-198 -418 -210 -829 -352 -1160 -400 -85 -12 -120 -15 -205 -15 -397 -3 -589
153 -579 470 10 335 230 777 651 1310 129 164 538 608 550 597 1 -2 -3 -39
-11 -83z"/>
<path d="M2550 5897 c-72 -23 -130 -109 -130 -192 0 -41 32 -107 66 -139 73
-67 191 -64 264 6 151 144 1 389 -200 325z"/>
<path d="M1983 5124 c-70 -35 -95 -135 -50 -201 50 -73 152 -82 213 -18 107
114 -22 288 -163 219z"/>
<path d="M613 4942 c-48 -26 -75 -66 -75 -115 -2 -112 103 -179 202 -129 88
44 97 174 15 234 -33 25 -103 30 -142 10z"/>
<path d="M1695 4653 c-56 -15 -95 -64 -100 -126 -6 -77 46 -137 122 -144 179
-16 211 246 33 270 -19 3 -44 3 -55 0z"/>
<path d="M377 3906 c-132 -39 -184 -187 -105 -302 83 -121 286 -95 340 45 57
148 -83 302 -235 257z"/>
<path d="M6550 3260 c-163 -29 -217 -236 -90 -343 30 -26 86 -47 124 -47 42 0
101 26 136 60 72 69 78 184 13 259 -19 23 -43 46 -53 51 -31 17 -94 26 -130
20z"/>
<path d="M5590 2548 c0 -61 -48 -227 -85 -293 -57 -102 -116 -141 -273 -181
-52 -13 -108 -24 -124 -24 -41 0 -27 -15 16 -18 51 -4 199 -48 256 -77 106
-54 164 -150 200 -330 10 -49 20 -83 23 -75 2 8 14 56 26 105 29 126 83 230
144 275 64 49 197 93 309 105 22 2 36 15 17 16 -55 3 -188 39 -255 69 -79 36
-139 90 -169 155 -28 59 -61 178 -68 249 -6 58 -17 73 -17 24z"/>
<path d="M6464 2230 c-11 -4 -32 -22 -47 -39 -81 -97 -12 -234 115 -226 137 8
175 200 51 260 -34 16 -86 19 -119 5z"/>
<path d="M5590 1519 c0 -5 5 -7 10 -4 6 3 10 8 10 11 0 2 -4 4 -10 4 -5 0 -10
-5 -10 -11z"/>
<path d="M4835 1458 c-23 -11 -54 -39 -72 -65 -28 -40 -31 -52 -30 -107 2 -70
27 -117 81 -154 127 -87 308 25 290 179 -15 126 -156 203 -269 147z"/>
<path d="M3180 888 c-123 -64 -148 -222 -48 -315 97 -90 253 -59 309 62 76
165 -99 335 -261 253z"/>
</g>
</svg>
